M48
; DRILL file {KiCad 8.0.4} date 2024-09-22T22:19:23-0500
; FORMAT={-:-/ absolute / inch / decimal}
; #@! TF.CreationDate,2024-09-22T22:19:23-05:00
; #@! TF.GenerationSoftware,Kicad,Pcbnew,8.0.4
; #@! TF.FileFunction,Plated,1,2,PTH
FMAT,2
INCH
; #@! TA.AperFunction,Plated,PTH,ViaDrill
T1C0.0256
; #@! TA.AperFunction,Plated,PTH,ComponentDrill
T2C0.0295
; #@! TA.AperFunction,Plated,PTH,ComponentDrill
T3C0.0300
; #@! TA.AperFunction,Plated,PTH,ComponentDrill
T4C0.0315
; #@! TA.AperFunction,Plated,PTH,ComponentDrill
T5C0.0394
; #@! TA.AperFunction,Plated,PTH,ComponentDrill
T6C0.0787
%
G90
G05
T1
X6.5433Y-1.5
X6.6378Y-2.1575
X6.815Y-1.3921
X6.878Y-2.1063
X7.2244Y-1.689
X7.2244Y-2.189
T2
X6.748Y-4.4039
X6.748Y-4.5039
X6.798Y-4.4539
T3
X5.4697Y-4.0531
X5.4697Y-4.1531
X5.4697Y-4.2531
X5.4697Y-4.3531
X5.4697Y-4.4531
X5.4697Y-4.5531
X5.7344Y-5.5646
X5.8344Y-5.5646
X5.9344Y-5.5646
X6.0344Y-5.5646
X6.1344Y-5.5646
X7.0293Y-1.3921
X7.0356Y-1.489
X7.0356Y-1.589
X7.0356Y-1.689
X7.0356Y-1.789
X7.0356Y-1.889
X7.0356Y-1.989
X7.0356Y-2.089
T4
X7.0157Y-3.874
X7.0157Y-4.3071
T5
X4.4843Y-2.1826
X4.4843Y-2.3794
X4.5Y-3.3046
X4.5Y-3.5015
X4.815Y-3.6654
X4.815Y-3.8622
X4.8268Y-2.9921
X4.8268Y-3.189
X5.1654Y-3.2874
X5.1654Y-3.4843
X5.7126Y-3.2849
X5.7126Y-3.4818
X6.5459Y-2.7869
X6.5459Y-2.8869
X6.5459Y-3.5869
X6.5459Y-3.6869
X6.6459Y-2.7869
X6.6459Y-2.8869
X6.6459Y-3.5869
X6.6459Y-3.6869
X6.7459Y-2.7869
X6.7459Y-2.8869
X6.7459Y-3.5869
X6.7459Y-3.6869
X6.8459Y-2.7869
X6.8459Y-2.8869
X6.8459Y-3.5869
X6.8459Y-3.6869
X6.9459Y-2.7869
X6.9459Y-2.8869
X6.9459Y-3.5869
X6.9459Y-3.6869
X7.0459Y-2.7869
X7.0459Y-2.8869
X7.0459Y-3.5869
X7.0459Y-3.6869
X7.1459Y-2.7869
X7.1459Y-2.8869
X7.1459Y-3.5869
X7.1459Y-3.6869
X7.2008Y-4.302
X7.2459Y-2.7869
X7.2459Y-2.8869
X7.2459Y-3.5869
X7.2459Y-3.6869
X7.5Y-4.302
T6
X4.6246Y-5.05
X7.4593Y-5.05
M30
