%TF.GenerationSoftware,KiCad,Pcbnew,8.0.4*%
%TF.CreationDate,2024-09-22T22:20:49-05:00*%
%TF.ProjectId,proyecto_doom,70726f79-6563-4746-9f5f-646f6f6d2e6b,rev?*%
%TF.SameCoordinates,Original*%
%TF.FileFunction,Soldermask,Top*%
%TF.FilePolarity,Negative*%
%FSLAX46Y46*%
G04 Gerber Fmt 4.6, Leading zero omitted, Abs format (unit mm)*
G04 Created by KiCad (PCBNEW 8.0.4) date 2024-09-22 22:20:49*
%MOMM*%
%LPD*%
G01*
G04 APERTURE LIST*
G04 Aperture macros list*
%AMRoundRect*
0 Rectangle with rounded corners*
0 $1 Rounding radius*
0 $2 $3 $4 $5 $6 $7 $8 $9 X,Y pos of 4 corners*
0 Add a 4 corners polygon primitive as box body*
4,1,4,$2,$3,$4,$5,$6,$7,$8,$9,$2,$3,0*
0 Add four circle primitives for the rounded corners*
1,1,$1+$1,$2,$3*
1,1,$1+$1,$4,$5*
1,1,$1+$1,$6,$7*
1,1,$1+$1,$8,$9*
0 Add four rect primitives between the rounded corners*
20,1,$1+$1,$2,$3,$4,$5,0*
20,1,$1+$1,$4,$5,$6,$7,0*
20,1,$1+$1,$6,$7,$8,$9,0*
20,1,$1+$1,$8,$9,$2,$3,0*%
%AMFreePoly0*
4,1,19,-0.850000,0.510000,-0.510000,0.850000,0.255000,0.850000,0.408997,0.829726,0.552500,0.770285,0.675729,0.675729,0.770285,0.552500,0.829726,0.408997,0.850000,0.255000,0.850000,-0.510000,0.510000,-0.850000,-0.255000,-0.850000,-0.408997,-0.829726,-0.552500,-0.770285,-0.675729,-0.675729,-0.770285,-0.552500,-0.829726,-0.408997,-0.850000,-0.255000,-0.850000,0.510000,-0.850000,0.510000,
$1*%
G04 Aperture macros list end*
%ADD10RoundRect,0.102000X0.754000X-0.754000X0.754000X0.754000X-0.754000X0.754000X-0.754000X-0.754000X0*%
%ADD11C,1.712000*%
%ADD12C,1.404000*%
%ADD13R,2.000000X2.000000*%
%ADD14C,2.000000*%
%ADD15FreePoly0,270.000000*%
%ADD16C,1.700000*%
%ADD17C,3.200000*%
%ADD18C,1.524000*%
%ADD19C,1.300000*%
%ADD20R,1.524000X1.524000*%
%ADD21R,3.500000X3.500000*%
%ADD22C,3.500000*%
G04 APERTURE END LIST*
D10*
%TO.C,S4*%
X113900000Y-60437500D03*
D11*
X113900000Y-55437500D03*
%TD*%
D10*
%TO.C,S5*%
X122300000Y-98100000D03*
D11*
X122300000Y-93100000D03*
%TD*%
D12*
%TO.C,R1*%
X178200000Y-98400000D03*
X178200000Y-109400000D03*
%TD*%
D10*
%TO.C,S3*%
X145100000Y-88437500D03*
D11*
X145100000Y-83437500D03*
%TD*%
D13*
%TO.C,BZ1*%
X182900000Y-109270000D03*
D14*
X190500000Y-109270000D03*
%TD*%
D10*
%TO.C,S6*%
X122600000Y-81000000D03*
D11*
X122600000Y-76000000D03*
%TD*%
D15*
%TO.C,U1*%
X184045000Y-70787500D03*
D16*
X181505000Y-70787500D03*
X178965000Y-70787500D03*
X176425000Y-70787500D03*
X173885000Y-70787500D03*
X171345000Y-70787500D03*
X168805000Y-70787500D03*
X166265000Y-70787500D03*
X166265000Y-93647500D03*
X168805000Y-93647500D03*
X171345000Y-93647500D03*
X173885000Y-93647500D03*
X176425000Y-93647500D03*
X178965000Y-93647500D03*
X181505000Y-93647500D03*
X184045000Y-93647500D03*
X184045000Y-73327500D03*
X181505000Y-73327500D03*
X178965000Y-73327500D03*
X176425000Y-73327500D03*
X173885000Y-73327500D03*
X171345000Y-73327500D03*
X168805000Y-73327500D03*
X166265000Y-73327500D03*
X166265000Y-91107500D03*
X168805000Y-91107500D03*
X171345000Y-91107500D03*
X173885000Y-91107500D03*
X176425000Y-91107500D03*
X178965000Y-91107500D03*
X181505000Y-91107500D03*
X184045000Y-91107500D03*
%TD*%
D17*
%TO.C,REF\u002A\u002A*%
X189600000Y-157500000D03*
%TD*%
D10*
%TO.C,S2*%
X114300000Y-88937500D03*
D11*
X114300000Y-83937500D03*
%TD*%
D18*
%TO.C,U2*%
X138930000Y-115650000D03*
X138930000Y-113110000D03*
X138930000Y-110570000D03*
X138930000Y-108030000D03*
X138930000Y-105490000D03*
X138930000Y-102950000D03*
%TD*%
D10*
%TO.C,S1*%
X131200000Y-88500000D03*
D11*
X131200000Y-83500000D03*
%TD*%
D17*
%TO.C,REF\u002A\u002A*%
X108000000Y-29800000D03*
%TD*%
D19*
%TO.C,Q1*%
X171400000Y-111860000D03*
X172670000Y-113130000D03*
X171400000Y-114400000D03*
%TD*%
D18*
%TO.C,U3*%
X155815000Y-141340000D03*
X153275000Y-141340000D03*
X150735000Y-141340000D03*
X148195000Y-141340000D03*
X145655000Y-141340000D03*
%TD*%
D17*
%TO.C,REF\u002A\u002A*%
X108400000Y-156200000D03*
%TD*%
%TO.C,REF\u002A\u002A*%
X188900000Y-30200000D03*
%TD*%
D20*
%TO.C,DS1*%
X178545000Y-35360000D03*
D18*
X178705000Y-37820000D03*
X178705000Y-40360000D03*
X178705000Y-42900000D03*
X178705000Y-45440000D03*
X178705000Y-47980000D03*
X178705000Y-50520000D03*
X178705000Y-53060000D03*
%TD*%
D17*
%TO.C,BT1*%
X126110000Y-128270000D03*
X181720000Y-128270000D03*
D21*
X117465000Y-128270000D03*
D22*
X189465000Y-128270000D03*
%TD*%
M02*
